<svg width="30" height="10" viewBox="0 0 30 10" fill="none" xmlns="http://www.w3.org/2000/svg">
<path d="M16.6813 1.84377L14.8645 5.7583H14.6806V1.00031H12.0852V9.00239H14.2372C14.8212 9.00239 15.3403 8.66717 15.589 8.14811L17.4166 4.24439H17.6005V9.00239H20.1959V1.00031H18.0114C17.4491 1.00031 16.9192 1.33553 16.6813 1.84377Z" fill="#319B42"/>
<path d="M6.30471 2.04892L5.2341 5.758H5.05026L3.96883 2.04892C3.78499 1.42173 3.21183 1 2.56298 1H0V9.00208H2.59542V4.24409H2.77926L4.27163 9.00208H6.00191L7.49428 4.24409H7.67812V9.00208H10.2735V1H7.71056C7.06171 1 6.47774 1.42173 6.30471 2.04892Z" fill="#319B42"/>
<path d="M21.3244 4.56739V9.00239H23.9207V6.40629H26.7116C27.9232 6.40629 28.9509 5.63828 29.3295 4.56739H21.3244Z" fill="#319B42"/>
<path d="M26.6358 1.00031H20.8591C21.2161 2.90411 22.882 4.24543 24.8833 4.24543H29.3727C29.4051 4.07235 29.4267 3.87765 29.4267 3.68294C29.4267 2.1361 28.1827 1.00031 26.6358 1.00031Z" fill="url(#paint0_linear_7_2400)"/>
<defs>
<linearGradient id="paint0_linear_7_2400" x1="20.8591" y1="2.62287" x2="29.4267" y2="2.62287" gradientUnits="userSpaceOnUse">
<stop stop-color="#00A3E1"/>
<stop offset="0.3042" stop-color="#009ADD"/>
<stop offset="0.7987" stop-color="#0082D4"/>
<stop offset="1" stop-color="#0076CF"/>
</linearGradient>
</defs>
</svg>
